<svg version="1.1" id="Layer_1" xmlns="http://www.w3.org/2000/svg" xmlns:xlink="http://www.w3.org/1999/xlink" x="0px" y="0px"
	 width="100%" viewBox="0 0 500 500" enable-background="new 0 0 500 500" xml:space="preserve">
<path fill="#000000" opacity="1.000000" stroke="none" 
	d="
M236.000000,501.000000 
	C158.666687,501.000000 81.833321,500.970825 5.000212,501.096191 
	C1.575908,501.101776 0.903036,500.423798 0.905301,497.000000 
	C1.013779,333.000092 1.013772,169.000122 0.905334,5.000237 
	C0.903070,1.576914 1.575824,0.903022 4.999887,0.905288 
	C168.999771,1.013774 332.999725,1.013761 496.999634,0.905352 
	C500.422668,0.903090 501.096985,1.575447 501.094727,4.999767 
	C500.986206,168.999649 500.986237,332.999603 501.094604,496.999512 
	C501.096893,500.422272 500.425415,501.100739 497.000305,501.095917 
	C410.166992,500.974121 323.333466,501.000000 236.000000,501.000000 
z"/>
<path fill="#FFFFFF" opacity="1.000000" stroke="none" 
	d="
M431.879639,150.000046 
	C428.603912,149.468201 425.551453,149.417999 422.963928,148.295792 
	C418.702209,146.447540 416.468231,140.666519 418.179749,135.804581 
	C419.678192,131.547943 422.722321,128.899902 427.770660,128.949295 
	C438.039062,129.049774 447.925385,130.569519 455.923492,137.526672 
	C463.411713,144.040283 466.777344,152.874161 466.913605,162.587021 
	C467.198730,182.912109 467.091278,203.244781 466.918945,223.572403 
	C466.886505,227.398285 467.548309,231.078857 468.099243,234.769638 
	C468.897064,240.113922 475.050537,245.362701 480.770172,245.954163 
	C483.036743,246.188553 485.244476,246.375931 487.510864,246.885071 
	C493.718231,248.279526 497.425110,251.962875 496.998566,257.122375 
	C496.536926,262.706390 491.841461,266.780701 485.753845,267.027863 
	C483.807129,267.106903 481.906219,266.889374 479.890503,267.485016 
	C470.889160,270.144806 467.515289,274.403473 467.176544,286.045563 
	C466.556488,307.356415 467.491791,328.713043 466.848389,350.022491 
	C466.308197,367.914032 456.912262,380.484467 437.913696,383.127991 
	C434.311249,383.629242 430.767090,384.038177 427.163666,383.981537 
	C422.066803,383.901428 418.414612,380.101227 417.948456,375.134338 
	C417.405212,369.346497 420.993958,364.445465 425.927521,363.825806 
	C428.812988,363.463379 431.801117,363.440094 434.619476,362.722046 
	C442.028320,360.834412 446.970978,354.163208 446.986908,346.152374 
	C447.026703,326.156647 447.039917,306.160645 446.983093,286.165009 
	C446.954865,276.227875 448.655701,266.752777 454.918243,258.764923 
	C456.655151,256.549530 455.307739,255.295013 454.486847,254.117783 
	C449.198547,246.534134 447.077789,238.029587 447.032349,228.977783 
	C446.929504,208.482574 447.010376,187.986511 446.995422,167.490784 
	C446.988373,157.823380 441.954346,151.855072 431.879639,150.000046 
z"/>
<path fill="#FFFFFF" opacity="1.000000" stroke="none" 
	d="
M79.083420,364.573578 
	C83.753052,367.515259 85.834770,371.752899 84.695663,375.732544 
	C83.062134,381.439545 80.013496,383.978516 74.448807,383.982605 
	C64.559502,383.989838 55.255447,382.321838 47.186096,375.804657 
	C40.024319,370.020508 36.976307,362.332916 36.062721,353.699097 
	C33.678825,331.169952 34.983997,308.542755 35.243763,285.979462 
	C35.376759,274.427673 27.091576,265.650269 16.387173,266.890869 
	C11.716270,267.432251 7.067416,263.888092 6.095318,260.250519 
	C4.789928,255.365723 6.492469,250.418716 10.580878,248.013733 
	C13.260754,246.437317 16.403341,246.202026 19.425142,246.040833 
	C28.359125,245.564255 34.974239,238.902542 34.989056,229.999191 
	C35.023438,209.337173 34.904507,188.674332 35.056225,168.013367 
	C35.103825,161.531342 36.148972,155.087982 38.514690,149.000351 
	C42.749054,138.104202 51.496204,132.645020 62.333748,130.073761 
	C66.136124,129.171616 70.060326,128.778946 74.045609,128.950546 
	C79.758347,129.196533 84.502365,133.101379 84.955231,138.662018 
	C85.315163,143.081436 82.414825,148.834839 76.297676,149.029083 
	C75.857338,149.043076 75.432472,149.501846 74.990723,149.520157 
	C56.011551,150.307144 55.534084,159.987366 55.106121,176.315964 
	C54.639145,194.133102 54.872562,211.973251 55.053959,229.800781 
	C55.144165,238.666580 53.251415,246.815613 47.962021,253.990723 
	C46.435848,256.061005 46.242508,257.540558 48.044182,259.651031 
	C52.845352,265.275177 54.770161,272.237701 54.886124,279.343414 
	C55.212353,299.333649 54.933308,319.333069 55.050861,339.327942 
	C55.077442,343.849152 55.890278,348.329407 56.883675,352.779419 
	C58.265469,358.969299 65.965897,363.285065 70.648003,362.943024 
	C73.536293,362.732056 76.031487,364.214874 79.083420,364.573578 
z"/>
<path fill="#FFFFFF" opacity="1.000000" stroke="none" 
	d="
M300.201202,232.564682 
	C293.002045,218.313248 295.690094,203.225616 304.250916,194.305511 
	C312.388580,185.826294 322.707825,183.407623 333.850983,185.453018 
	C346.715424,187.814362 355.455353,196.212875 357.471069,208.681137 
	C359.308655,220.047638 358.058563,231.933899 357.910156,243.587769 
	C357.868225,246.880585 354.859131,245.830856 352.869324,245.988800 
	C350.898407,246.145264 349.094360,245.920624 349.012878,243.332977 
	C348.960693,241.675140 349.003113,240.014359 349.003113,237.742020 
	C330.975891,251.506424 314.693970,250.952713 300.201202,232.564682 
z"/>
<path fill="#FFFFFF" opacity="1.000000" stroke="none" 
	d="
M179.210022,320.292755 
	C174.734680,321.889526 172.875290,320.798523 172.920074,315.983643 
	C173.108948,295.676514 172.999527,275.366608 173.000809,255.057739 
	C173.000916,253.155731 172.459106,251.010666 175.180557,250.350769 
	C177.451630,249.800064 178.784286,250.610168 180.286667,252.539566 
	C193.222534,269.152252 206.005890,285.877167 218.445145,302.865631 
	C219.092300,303.749451 220.080338,304.383606 220.868927,305.097137 
	C222.744293,304.134399 221.954224,302.619293 221.958939,301.464264 
	C222.020630,286.316071 222.026321,271.167480 221.977768,256.019196 
	C221.968063,252.987823 222.163116,250.010849 226.062210,250.084808 
	C229.523514,250.150467 229.963882,253.094299 229.970886,255.763016 
	C230.023819,275.905304 229.994705,296.047760 230.007843,316.190186 
	C230.009140,318.195312 229.811432,320.322662 227.645004,320.897644 
	C225.162888,321.556458 222.855255,320.956268 221.103180,318.624329 
	C208.755264,302.189728 196.342545,285.803711 183.924484,269.421967 
	C183.454102,268.801453 182.717163,268.382996 182.154739,267.912476 
	C180.228470,268.802277 181.047607,270.341736 181.042282,271.488922 
	C180.977249,285.471802 180.966934,299.455200 181.032349,313.438049 
	C181.043335,315.788116 180.853500,317.993134 179.210022,320.292755 
z"/>
<path fill="#FFFFFF" opacity="1.000000" stroke="none" 
	d="
M201.234955,243.307297 
	C189.130768,250.042191 173.076370,247.272980 166.035873,238.613358 
	C161.435425,232.954895 159.422653,226.411469 159.105118,219.456039 
	C158.680389,210.152695 159.055817,200.814880 158.972351,191.492905 
	C158.939301,187.800400 160.580994,185.108429 164.156754,185.170959 
	C167.414047,185.227905 169.080429,187.753036 169.038757,191.313065 
	C168.925720,200.967422 168.992325,210.623978 169.002121,220.279648 
	C169.012161,230.180435 176.891479,237.655396 187.009338,238.075348 
	C196.458862,238.467575 206.926636,232.263794 206.989197,220.755219 
	C207.041672,211.099823 207.135040,201.441040 206.929321,191.789749 
	C206.853729,188.243256 207.444626,185.241394 211.388000,185.131119 
	C215.389236,185.019211 216.114990,187.900635 216.074661,191.558136 
	C215.900269,207.371552 216.041534,223.188202 215.959564,239.003113 
	C215.945724,241.673218 217.130936,245.121338 212.852600,245.997910 
	C208.039948,246.983932 206.348511,244.519058 206.785980,240.092178 
	C204.123932,240.029587 203.743942,243.078369 201.234955,243.307297 
z"/>
<path fill="#FFFFFF" opacity="1.000000" stroke="none" 
	d="
M392.233917,238.000000 
	C397.838684,237.836685 403.219818,238.976273 407.319336,234.261398 
	C411.336792,229.640884 410.742676,226.028183 405.481201,222.863663 
	C400.041473,219.591949 393.784363,219.639908 387.972595,217.940125 
	C381.564392,216.065872 375.000427,213.726578 373.099243,206.360565 
	C370.902313,197.848862 374.779572,190.341263 381.999359,187.364700 
	C391.623596,183.396805 406.489410,183.766129 414.795074,192.189072 
	C417.257080,194.685883 418.303864,197.723816 416.173645,199.983078 
	C414.051453,202.233902 410.981018,201.435959 408.398682,198.985413 
	C402.419098,193.311035 393.762970,191.381042 386.189087,195.301682 
	C383.449738,196.719727 382.100098,198.641403 381.948456,201.748016 
	C381.781799,205.162064 383.775574,206.689590 386.392487,208.081467 
	C391.040619,210.553680 396.289185,210.632111 401.185028,212.056824 
	C406.804565,213.692139 412.561188,214.922272 416.217224,220.551025 
	C421.995636,229.447403 418.782776,237.727814 411.610413,242.663467 
	C400.440063,250.350266 380.223846,247.688217 372.351105,238.917267 
	C370.633362,237.003540 368.597717,235.248276 370.903870,232.646072 
	C373.297546,229.945114 376.164978,230.261902 378.777344,232.297501 
	C382.650757,235.315765 386.556274,238.112549 392.233917,238.000000 
z"/>
<path fill="#FFFFFF" opacity="1.000000" stroke="none" 
	d="
M101.000000,209.000000 
	C101.000008,217.320541 101.155006,225.145645 100.924873,232.959412 
	C100.830826,236.152588 101.626595,237.145004 104.963379,237.085495 
	C117.106316,236.868912 129.255829,237.049652 141.401901,236.955475 
	C143.660934,236.937958 145.761093,237.312881 147.253922,238.870163 
	C148.759766,240.441040 148.220444,242.676727 147.706741,244.521362 
	C147.201584,246.335388 145.360947,246.000580 143.876694,246.000504 
	C128.069214,245.999588 112.260834,245.909775 96.454948,246.068634 
	C92.875069,246.104614 91.925583,244.824768 91.940201,241.415070 
	C92.049988,215.790787 92.030167,190.165741 91.958977,164.541168 
	C91.950775,161.590637 92.409302,159.799316 95.983597,159.931046 
	C99.539513,160.062103 101.038383,161.548737 101.024246,165.071121 
	C100.966148,179.547211 100.999985,194.023682 101.000000,209.000000 
z"/>
<path fill="#FFFFFF" opacity="1.000000" stroke="none" 
	d="
M261.879700,194.000000 
	C249.507477,194.000015 242.385956,200.705063 240.965286,212.884720 
	C239.652969,224.135498 244.379059,234.251862 255.941833,237.329910 
	C262.003387,238.943542 268.208954,238.785110 273.686401,234.821762 
	C274.465515,234.258011 275.406830,233.916428 276.177460,233.343399 
	C278.550690,231.578735 281.007965,231.909210 282.454102,234.117920 
	C283.933899,236.378052 283.147736,238.740540 280.904633,240.627701 
	C274.234955,246.238998 266.298798,248.007721 258.092743,246.855225 
	C245.750641,245.121857 236.586075,238.808090 232.656754,226.222061 
	C227.842117,210.800232 234.052368,193.843796 248.279755,187.406311 
	C259.107971,182.506805 272.221344,183.916550 281.994110,193.456284 
	C284.551758,195.952942 285.222656,199.047485 282.949615,201.207336 
	C280.976959,203.081741 277.854675,202.632217 275.542236,200.079773 
	C272.053619,196.229111 267.851776,193.602173 261.879700,194.000000 
z"/>
<path fill="#FFFFFF" opacity="1.000000" stroke="none" 
	d="
M242.000000,360.000000 
	C202.521744,360.000000 163.543488,360.000000 124.565239,359.999908 
	C123.399223,359.999908 122.232895,360.015137 121.067291,359.992920 
	C120.093437,359.974365 119.063919,360.098145 118.995308,358.597198 
	C118.929108,357.149109 119.778740,356.988922 120.874321,356.999756 
	C122.040215,357.011322 123.206314,357.000122 124.372330,357.000122 
	C189.835800,357.000000 255.299423,356.948364 320.762451,357.114990 
	C325.175354,357.126221 326.654419,356.090057 326.069672,351.721375 
	C325.697327,348.939484 325.956055,346.066406 326.010010,343.235657 
	C326.097778,338.630615 329.584351,334.532715 333.793396,334.002960 
	C340.955658,333.101532 345.010681,335.740723 346.793182,342.463837 
	C347.899139,346.635223 344.751373,352.167542 340.673126,354.051392 
	C336.989746,355.752777 333.803497,354.786652 330.558228,352.761078 
	C329.318237,355.997253 330.048981,357.084778 333.346771,357.057892 
	C349.170227,356.928925 364.995331,356.999939 380.819824,357.000061 
	C381.819275,357.000061 382.819855,356.971344 383.817810,357.010406 
	C384.748871,357.046875 385.854370,356.782013 385.988586,358.288239 
	C386.151672,360.118744 384.922211,359.998627 383.740662,359.998657 
	C379.909454,359.998718 376.078278,359.999878 372.247070,359.999939 
	C360.087189,360.000122 347.926636,359.932251 335.767975,360.055450 
	C333.244202,360.081055 329.983459,358.628265 328.653015,362.588501 
	C328.412048,363.305878 326.595825,363.188141 326.508759,362.771576 
	C325.539917,358.134186 321.889954,360.098602 319.456390,360.085510 
	C293.804840,359.947296 268.152283,360.000000 242.000000,360.000000 
z"/>
<path fill="#FFFFFF" opacity="1.000000" stroke="none" 
	d="
M246.151886,308.423767 
	C243.934708,299.876617 245.432693,291.572571 245.019424,283.346527 
	C244.894165,280.853394 245.061417,278.346771 244.983521,275.849792 
	C244.899429,273.153595 245.972549,271.030823 248.728470,271.131592 
	C251.389847,271.228912 252.959534,273.247253 252.985428,276.044312 
	C253.033203,281.209320 252.733536,286.392639 253.073654,291.535583 
	C253.424606,296.842041 251.600479,302.303802 254.819427,307.458191 
	C258.230530,312.920258 265.149658,315.686401 272.934143,313.973846 
	C278.758972,312.692413 282.998596,307.134277 282.999695,300.773682 
	C283.001038,292.942230 283.063843,285.110016 282.970001,277.279694 
	C282.929962,273.937134 284.038147,271.113800 287.529236,271.165192 
	C290.925903,271.215179 291.045532,274.292908 291.030701,277.113708 
	C290.961426,290.276855 291.001495,303.440613 290.998138,316.604126 
	C290.997681,318.405029 291.380127,320.792633 288.852448,320.831512 
	C287.255951,320.856049 284.922485,322.615753 283.744446,318.988586 
	C282.850922,316.237335 280.028992,318.471161 278.383392,319.319733 
	C270.711853,323.275421 263.170471,323.056030 255.619080,319.119781 
	C251.240021,316.837158 248.426620,313.128510 246.151886,308.423767 
z"/>
<path fill="#FFFFFF" opacity="1.000000" stroke="none" 
	d="
M319.984222,314.001404 
	C323.747986,314.338348 323.126068,316.902344 322.908661,318.908813 
	C322.671509,321.097626 320.743805,320.808533 319.070465,321.045776 
	C309.691376,322.375427 304.997742,313.899353 304.998962,307.311462 
	C305.002045,291.017120 304.941223,274.722382 305.048950,258.428772 
	C305.070862,255.117325 303.457825,250.019547 309.131683,250.207626 
	C313.943604,250.367142 312.970795,255.019531 312.979980,258.322235 
	C313.024384,274.283936 313.045197,290.246002 312.971619,306.207489 
	C312.950348,310.823425 314.633118,313.714661 319.984222,314.001404 
z"/>
<path fill="#FFFFFF" opacity="1.000000" stroke="none" 
	d="
M338.000000,261.100494 
	C338.000000,276.250763 337.992950,290.914734 338.003357,305.578705 
	C338.007721,311.714081 339.057159,313.171814 344.973511,313.922699 
	C347.804993,314.282074 348.046082,315.789093 348.021515,317.992767 
	C347.994049,320.454865 346.592163,320.799194 344.484863,321.059662 
	C334.880066,322.246704 330.204529,314.945801 330.096375,308.172699 
	C329.811676,290.347198 330.014343,272.514069 329.985291,254.684067 
	C329.980835,251.943130 331.095612,250.282288 333.908386,250.008957 
	C336.914825,249.716812 337.404327,252.292816 337.869995,254.144714 
	C338.382599,256.183197 337.995270,258.447998 338.000000,261.100494 
z"/>
<path fill="#FFFFFF" opacity="1.000000" stroke="none" 
	d="
M205.000031,345.773895 
	C203.906097,337.820679 209.873520,331.585419 218.831299,334.508698 
	C222.225006,335.616180 221.801804,334.090973 222.073273,331.903351 
	C222.363678,329.563080 220.441727,325.327362 224.063049,325.382874 
	C227.524124,325.435913 225.891388,329.682922 225.903061,332.020752 
	C225.929840,337.390686 226.763733,342.843445 224.960419,348.123138 
	C223.295242,352.998444 219.234711,354.600922 214.776932,354.895874 
	C210.316010,355.191040 205.930481,350.907318 205.000031,345.773895 
z"/>
<path fill="#FFFFFF" opacity="1.000000" stroke="none" 
	d="
M181.572906,354.779388 
	C173.140091,354.100586 170.005692,350.756531 170.000610,343.001617 
	C169.997467,338.184204 170.026459,333.366577 169.985535,328.549500 
	C169.972153,326.973022 170.134369,325.148987 171.922272,325.202332 
	C173.398453,325.246399 173.875641,327.124847 173.959900,328.554932 
	C174.084488,330.669403 173.992096,332.796600 173.992096,335.066376 
	C183.296814,332.128021 187.656342,333.983551 190.119812,341.570984 
	C192.215240,348.024902 189.679565,352.056885 181.572906,354.779388 
z"/>
<path fill="#FFFFFF" opacity="1.000000" stroke="none" 
	d="
M121.981110,344.089142 
	C121.122566,341.426208 120.312508,339.162292 119.430450,336.926788 
	C118.999886,335.835571 118.349541,334.606354 119.905518,334.090668 
	C121.362892,333.607605 122.515472,334.449097 122.953880,335.905365 
	C123.869377,338.946411 124.532898,342.075256 126.226906,344.926727 
	C129.503998,343.004608 128.698624,339.421112 129.885986,336.755707 
	C130.454178,335.480255 130.652557,334.270111 132.211975,334.023346 
	C134.420914,333.673798 134.480347,335.779877 134.876999,336.871582 
	C135.952957,339.832916 136.571930,342.960297 137.625412,346.991119 
	C139.598358,343.411743 140.419785,340.493256 141.064697,337.450104 
	C141.365265,336.031799 141.450043,333.768829 143.681213,334.088745 
	C146.290344,334.462860 145.174042,336.955627 144.855316,338.087372 
	C143.467468,343.015228 141.547150,347.790802 140.058533,352.694061 
	C139.627060,354.115265 138.836044,353.958344 137.889877,353.993225 
	C136.821289,354.032623 136.337021,353.764771 135.898819,352.488281 
	C134.795883,349.275452 134.319473,345.742462 131.842026,342.381256 
	C130.768097,345.808380 129.762314,348.598602 129.050537,351.461884 
	C128.680466,352.950562 128.106781,353.850281 126.539017,353.997040 
	C124.583221,354.180115 124.643387,352.290314 124.202095,351.348145 
	C123.193161,349.194153 122.701630,346.797791 121.981110,344.089142 
z"/>
<path fill="#FFFFFF" opacity="1.000000" stroke="none" 
	d="
M270.008820,341.482452 
	C271.771637,336.111084 274.849579,333.411774 280.516907,333.926453 
	C285.480072,334.377167 288.675140,337.145874 289.012421,342.068146 
	C289.193359,344.708862 288.363800,346.148010 285.411560,346.034363 
	C281.673096,345.890472 277.924835,345.999573 273.890717,345.999573 
	C277.039368,351.621155 278.654846,352.206329 283.894318,350.021973 
	C285.183594,349.484467 286.600128,348.140594 287.595856,350.209686 
	C288.599243,352.294708 286.792633,352.454071 285.447693,353.123444 
	C276.306824,357.672607 269.997284,353.124298 270.008820,341.482452 
z"/>
<path fill="#FFFFFF" opacity="1.000000" stroke="none" 
	d="
M243.337402,334.117981 
	C247.058685,335.439270 248.093842,338.495178 248.887711,341.362152 
	C249.638443,344.073334 248.837921,346.260315 245.144974,346.045563 
	C241.533340,345.835571 237.899933,345.999878 234.135101,345.999878 
	C236.435760,351.366913 238.533020,352.176147 243.674667,350.079956 
	C245.048172,349.519989 246.803253,348.014648 247.732727,350.429260 
	C248.509689,352.447693 246.449539,352.601379 245.249100,353.291168 
	C239.332214,356.691132 233.222565,353.971497 230.511765,348.970154 
	C228.246628,344.791016 230.544357,337.374237 234.726318,334.811676 
	C237.358353,333.198914 240.206329,334.385681 243.337402,334.117981 
z"/>
<path fill="#FFFFFF" opacity="1.000000" stroke="none" 
	d="
M149.246368,351.623077 
	C145.344528,345.558350 146.417435,338.347412 151.438690,335.079071 
	C157.055756,331.422913 165.184952,335.050812 165.979889,341.607758 
	C166.299744,344.245972 165.784882,346.201965 162.371185,346.038971 
	C158.718079,345.864471 155.050171,345.999603 151.336761,345.999603 
	C152.944519,351.121857 155.371292,352.107941 160.473679,350.147949 
	C161.744339,349.659851 163.495285,347.785828 164.619553,350.255066 
	C165.720337,352.672791 163.244003,352.768433 162.023712,353.450928 
	C157.523102,355.968170 153.385620,354.719818 149.246368,351.623077 
z"/>
<path fill="#FFFFFF" opacity="1.000000" stroke="none" 
	d="
M356.945129,350.432159 
	C359.880066,351.384186 362.511780,351.198639 364.752411,349.623718 
	C366.147125,348.643433 366.877777,349.168304 367.598328,350.180908 
	C368.640808,351.645966 367.345428,352.329346 366.406067,352.848022 
	C361.043945,355.808990 355.259796,355.795471 351.376465,349.919769 
	C348.319397,345.294250 349.870636,337.995422 354.516602,335.013611 
	C360.152039,331.396729 368.251495,335.132843 368.991608,341.705322 
	C369.300415,344.447723 368.587158,346.203888 365.273376,346.040710 
	C361.628326,345.861237 357.967651,345.999756 354.324890,345.999756 
	C353.689606,348.373413 355.788147,348.879730 356.945129,350.432159 
z"/>
<path fill="#FFFFFF" opacity="1.000000" stroke="none" 
	d="
M318.179260,352.321228 
	C310.166534,355.971466 305.661102,355.130890 302.165619,349.672852 
	C299.681915,345.794678 300.607025,339.583954 304.150665,336.346039 
	C307.692017,333.110199 314.370056,333.010681 318.455658,336.132812 
	C321.446533,338.418457 322.719360,344.741882 320.832153,348.426758 
	C320.179382,349.701355 319.249847,350.834229 318.179260,352.321228 
z"/>
<path fill="#FFFFFF" opacity="1.000000" stroke="none" 
	d="
M262.245300,350.364441 
	C261.198883,351.894012 261.566193,353.871155 259.213989,354.069183 
	C256.778992,354.274170 256.821625,352.319397 256.023865,351.104553 
	C253.286682,346.936310 252.520111,341.788422 249.373642,337.781891 
	C248.601257,336.798370 248.394226,334.819855 249.596558,334.175323 
	C250.981033,333.433167 252.278992,334.326691 253.041031,335.991394 
	C254.713287,339.644653 256.606964,343.196594 258.501190,346.971161 
	C261.426117,344.197662 262.881287,340.684479 264.042023,336.972351 
	C264.648285,335.033447 265.696625,333.017853 268.112671,334.120911 
	C270.623291,335.267059 268.375580,337.026337 267.890778,338.223694 
	C266.267151,342.233795 264.298126,346.104034 262.245300,350.364441 
z"/>
<path fill="#FFFFFF" opacity="1.000000" stroke="none" 
	d="
M295.880981,326.691895 
	C295.989868,333.624329 295.990112,340.123169 296.002991,346.622040 
	C296.006897,348.599396 295.640320,350.845123 298.639801,350.993774 
	C299.738525,351.048187 299.977020,351.662628 299.999084,352.592529 
	C300.035645,354.131592 298.924316,353.870087 297.966003,354.013947 
	C293.860260,354.630341 292.134338,352.365204 292.048004,348.751740 
	C291.884888,341.923462 291.938080,335.087677 292.032654,328.256775 
	C292.068787,325.647644 292.789154,323.655884 295.880981,326.691895 
z"/>
<path fill="#FFFFFF" opacity="1.000000" stroke="none" 
	d="
M373.287567,353.526245 
	C373.025757,347.633759 373.057159,342.141571 372.977539,336.651001 
	C372.947998,334.611176 373.256104,333.329437 375.729767,334.303101 
	C378.414520,335.359863 380.985596,333.257263 383.715118,333.957947 
	C384.795776,334.235382 386.131927,333.770020 385.998444,335.654572 
	C385.892059,337.156982 384.843567,336.882080 383.883423,337.014160 
	C376.929749,337.970642 376.059174,338.976685 376.002350,346.001373 
	C375.986206,347.998260 375.914124,349.999908 376.021576,351.991089 
	C376.127808,353.959259 375.063171,354.180420 373.287567,353.526245 
z"/>
<path fill="#000000" opacity="1.000000" stroke="none" 
	d="
M336.100708,236.410706 
	C322.402740,240.833939 313.170593,235.703125 307.918915,225.643707 
	C300.393311,211.228638 311.584473,193.080795 327.528809,193.720108 
	C337.613800,194.124466 346.549438,201.086258 348.865570,211.984818 
	C350.804108,221.106537 344.782379,233.549362 336.100708,236.410706 
z"/>
<path fill="#000000" opacity="1.000000" stroke="none" 
	d="
M330.000793,343.232666 
	C330.536957,339.348358 332.481812,337.074890 336.025879,337.079956 
	C339.467804,337.084869 341.622559,339.437469 342.771759,342.489197 
	C344.066010,345.926208 341.784790,348.004639 339.485718,349.987579 
	C337.582062,351.629456 335.771698,351.069733 333.615784,350.263824 
	C330.284943,349.018707 329.715332,346.667267 330.000793,343.232666 
z"/>
<path fill="#000000" opacity="1.000000" stroke="none" 
	d="
M217.832245,337.973083 
	C222.635941,342.115997 223.042908,344.614929 220.161667,348.364655 
	C217.693771,351.576508 214.693771,351.865601 211.599792,349.801178 
	C208.722794,347.881561 207.280167,345.065521 209.090622,341.605652 
	C210.852997,338.237701 213.039429,335.475159 217.832245,337.973083 
z"/>
<path fill="#000000" opacity="1.000000" stroke="none" 
	d="
M186.998947,344.056580 
	C186.168518,348.342102 184.188934,351.218567 179.843033,350.915161 
	C177.030487,350.718811 174.379074,349.431183 174.041931,346.093384 
	C173.666367,342.375153 173.980988,338.798279 178.309708,337.287384 
	C181.809235,336.065826 184.881683,338.330048 186.998947,344.056580 
z"/>
<path fill="#000000" opacity="1.000000" stroke="none" 
	d="
M275.155273,339.358276 
	C280.544556,336.005219 281.786407,336.311066 285.200958,341.995270 
	C281.825867,341.995270 278.790771,342.000244 275.755676,341.993683 
	C273.407501,341.988617 273.679535,340.996460 275.155273,339.358276 
z"/>
<path fill="#000000" opacity="1.000000" stroke="none" 
	d="
M244.253433,341.901306 
	C240.620911,341.987579 237.404800,341.987579 233.784317,341.987579 
	C234.898727,338.598022 237.198502,337.001282 239.666290,337.196808 
	C241.926498,337.375946 244.815262,338.335724 244.253433,341.901306 
z"/>
<path fill="#000000" opacity="1.000000" stroke="none" 
	d="
M152.155289,339.358276 
	C157.544662,336.005127 158.786362,336.310944 162.200958,341.995270 
	C158.825851,341.995270 155.790741,342.000214 152.755646,341.993652 
	C150.407318,341.988586 150.679703,340.996368 152.155289,339.358276 
z"/>
<path fill="#000000" opacity="1.000000" stroke="none" 
	d="
M358.382751,337.235229 
	C361.731781,337.121307 363.738678,338.610352 365.344696,341.698486 
	C361.324768,341.698486 357.816681,341.698486 354.139282,341.698486 
	C354.128540,339.075348 356.352142,338.487732 358.382751,337.235229 
z"/>
<path fill="#000000" opacity="1.000000" stroke="none" 
	d="
M313.170929,337.645599 
	C317.040436,339.726715 319.179016,342.066925 317.145081,346.419739 
	C315.577393,349.774689 313.370758,351.966156 309.509674,350.755737 
	C305.950348,349.639923 303.798157,346.916534 304.509247,343.134857 
	C305.331421,338.762543 308.069244,336.334717 313.170929,337.645599 
z"/>
</svg>